<?xml version="1.0" standalone="no"?>
<!DOCTYPE svg PUBLIC "-//W3C//DTD SVG 20010904//EN"
 "http://www.w3.org/TR/2001/REC-SVG-20010904/DTD/svg10.dtd">
<svg version="1.0" xmlns="http://www.w3.org/2000/svg"
 width="512.000000pt" height="512.000000pt" viewBox="0 0 512.000000 512.000000"
 preserveAspectRatio="xMidYMid meet">
<metadata>
Created by potrace 1.14, written by Peter Selinger 2001-2017
</metadata>
<g transform="translate(0.000000,512.000000) scale(0.100000,-0.100000)"
fill="#000000" stroke="none">
<path d="M2369 5116 c-2 -2 -33 -6 -69 -10 -75 -7 -232 -32 -299 -47 -25 -6
-53 -12 -61 -14 -8 -2 -55 -15 -104 -30 -569 -167 -1070 -536 -1406 -1034
-133 -198 -242 -425 -314 -656 -29 -92 -71 -267 -82 -340 -3 -27 -8 -59 -10
-70 -19 -101 -26 -508 -11 -630 11 -87 17 -128 22 -155 3 -14 8 -41 11 -60 94
-520 393 -1045 811 -1422 347 -313 839 -547 1288 -614 22 -3 51 -8 65 -10 119
-20 466 -26 610 -11 775 79 1464 503 1892 1162 93 144 138 229 233 450 10 24
60 170 72 210 11 39 64 267 68 297 3 21 8 52 11 70 25 173 25 551 0 711 -63
405 -182 723 -390 1042 -394 602 -1025 1016 -1721 1129 -30 5 -65 11 -140 22
-44 6 -470 15 -476 10z m81 -423 l0 -203 -32 -1 c-18 0 -44 -2 -58 -4 -14 -2
-45 -6 -70 -9 -101 -12 -345 -74 -415 -106 -11 -5 -51 -22 -90 -39 -416 -178
-775 -526 -972 -942 -36 -76 -97 -231 -109 -276 -26 -106 -55 -238 -60 -282
-3 -30 -8 -62 -9 -70 -2 -9 -4 -33 -4 -53 l-1 -38 -205 0 -205 0 4 33 c3 17 7
64 11 104 3 39 8 84 11 100 4 28 16 94 19 103 1 3 5 25 9 50 27 145 114 387
204 565 49 97 183 307 237 374 56 68 98 114 180 199 76 79 132 128 305 266 79
63 322 198 450 250 36 15 74 31 85 36 56 26 311 98 372 105 21 3 49 7 63 10
62 13 80 15 155 21 44 4 82 8 83 10 2 1 13 2 23 1 18 -1 19 -12 19 -204z m380
191 c161 -19 285 -46 455 -100 266 -85 565 -250 775 -429 67 -57 257 -250 311
-317 144 -177 259 -368 344 -568 63 -148 131 -378 149 -505 4 -23 8 -51 11
-64 4 -21 9 -70 20 -198 l3 -33 -204 0 -204 0 -1 33 c0 17 -2 43 -4 57 -2 14
-6 45 -9 70 -20 167 -80 368 -164 550 -122 268 -361 559 -602 735 -61 45 -134
94 -165 110 -11 6 -42 24 -70 39 -216 121 -557 220 -777 225 l-28 1 0 204 0
204 53 -4 c28 -2 77 -6 107 -10z m-22 -629 c123 -18 142 -22 227 -46 207 -61
439 -182 605 -317 87 -71 240 -232 303 -319 333 -464 419 -1027 240 -1563
-157 -471 -523 -856 -988 -1042 -634 -253 -1357 -106 -1841 376 -193 192 -332
414 -417 666 -24 71 -45 143 -53 183 -2 10 -5 26 -8 35 -3 9 -8 40 -11 67 -30
256 -25 413 17 615 6 30 12 60 14 65 9 46 52 175 82 245 93 219 209 391 376
555 216 214 459 356 746 436 82 24 80 23 130 32 70 14 96 17 175 23 44 4 81 7
82 9 9 6 241 -8 321 -20z m-2177 -1837 c0 -18 2 -44 4 -58 2 -14 6 -45 9 -70
3 -25 8 -56 11 -70 3 -14 8 -41 12 -60 4 -19 8 -37 8 -40 41 -161 109 -345
166 -447 11 -21 31 -56 42 -78 102 -189 324 -439 517 -582 290 -214 596 -335
955 -378 11 -1 37 -3 58 -4 l37 -1 0 -205 0 -205 -32 5 c-18 2 -62 6 -98 9
-259 22 -552 107 -809 236 -224 113 -405 245 -592 430 -369 365 -586 788 -673
1311 -6 34 -15 119 -21 187 l-4 52 205 0 204 0 1 -32z m4264 0 c-2 -18 -7 -64
-10 -103 -7 -77 -12 -123 -19 -158 -132 -681 -516 -1243 -1092 -1595 -195
-120 -511 -250 -674 -279 -14 -2 -41 -8 -60 -13 -61 -16 -213 -37 -317 -44
l-53 -4 0 204 0 204 33 1 c17 0 39 2 47 3 8 2 40 6 70 10 465 54 935 319 1245
701 156 192 301 474 362 705 31 120 60 286 62 368 l1 32 205 0 205 0 -5 -32z"/>
<path d="M2503 3845 c-42 -18 -49 -31 -138 -250 -78 -192 -85 -210 -123 -300
-19 -45 -367 -895 -509 -1245 -30 -74 -61 -148 -68 -165 -48 -110 -65 -167
-59 -199 8 -47 44 -77 96 -83 47 -5 4 -30 684 394 l161 100 299 -185 c509
-315 504 -312 543 -312 57 0 96 36 107 96 3 16 -24 94 -75 217 -43 106 -154
374 -245 597 -92 223 -173 419 -181 435 -7 17 -88 212 -180 435 -91 223 -173
415 -181 427 -27 42 -82 58 -131 38z m263 -921 c113 -275 226 -548 251 -609
24 -60 50 -123 57 -140 56 -131 76 -179 76 -186 0 -4 -62 31 -137 79 -351 218
-446 273 -473 268 -36 -5 -30 -2 -326 -186 -141 -88 -258 -159 -261 -157 -3 4
15 54 37 102 5 11 39 94 76 185 36 91 72 179 79 195 7 17 52 127 100 245 48
118 93 229 100 245 8 17 39 93 70 170 31 77 62 153 70 170 7 16 23 56 35 88
17 43 25 55 31 44 5 -8 102 -239 215 -513z"/>
</g>
</svg>
